# xmcd CD database file
#
# Track frame offsets:
#	150
#	10949
#	23876
#	37057
#	47715
#	55557
#	64075
#	75170
#	86014
#	96731
#	106998
#	118138
#	129219
#
# Disc length: 1831 seconds
#
# Revision: 1
# Processed by: cddbd v1.5.2PL0 Copyright (c) Steve Scherf et al.
# Submitted via: CDex 1.51
#
DISCID=a207250d
DTITLE=Dr. John - Dr. John And His New Orleans Congregation
DYEAR=1973
DGENRE=R&B
TTITLE0=New Orleans
TTITLE1=Storm Warning
TTITLE2=They Gonna Do Wfat They Wanna Do
TTITLE3=Morgus The Magnificent
TTITLE4=Bad Neighborhood
TTITLE5=It Ain't No Use
TTITLE6=Down The Road
TTITLE7=Little Baby Face Thing
TTITLE8=Let The Good Times Roll
TTITLE9=Chick-A Wa Wa
TTITLE10=You Keep Draggin' Me On
TTITLE11=Rock
TTITLE12=Roll On
EXTD=YEAR: 1973
EXTT0=
EXTT1=
EXTT2=
EXTT3=
EXTT4=
EXTT5=
EXTT6=
EXTT7=
EXTT8=
EXTT9=
EXTT10=
EXTT11=
EXTT12=
PLAYORDER=
